<svg xmlns="http://www.w3.org/2000/svg" viewBox="0 0 860 376" width="860" height="376" role="img" aria-label="How much better than guessing, for each condition?">
<rect x="0.5" y="0.5" width="859" height="375" rx="10" fill="#fcfcfb" stroke="#e4e3df"/>
<text x="24.0" y="34.0" font-family="-apple-system,BlinkMacSystemFont,'Segoe UI',Helvetica,Arial,sans-serif" font-size="16" font-weight="600" fill="#0b0b0b" text-anchor="start">How much better than guessing, for each condition?</text>
<text x="24.0" y="55.0" font-family="-apple-system,BlinkMacSystemFont,'Segoe UI',Helvetica,Arial,sans-serif" font-size="12.5" font-weight="400" fill="#52514e" text-anchor="start">1x would mean no better than chance. Same model throughout.</text>
<text x="24.0" y="116.0" font-family="-apple-system,BlinkMacSystemFont,'Segoe UI',Helvetica,Arial,sans-serif" font-size="13" font-weight="400" fill="#52514e" text-anchor="start">End-stage kidney disease</text>
<text x="24.0" y="131.0" font-family="-apple-system,BlinkMacSystemFont,'Segoe UI',Helvetica,Arial,sans-serif" font-size="10.5" font-weight="400" fill="#84837d" text-anchor="start">3.0% of patients</text>
<rect x="400" y="104" width="300" height="18" fill="#eceae5" rx="4"/>
<path d="M400.0,104.0 H681.7 a4,4 0 0 1 4,4 V118.0 a4,4 0 0 1 -4,4 H400.0 Z" fill="#2a78d6"/>
<text x="712.0" y="118.0" font-family="-apple-system,BlinkMacSystemFont,'Segoe UI',Helvetica,Arial,sans-serif" font-size="14" font-weight="600" fill="#0b0b0b" text-anchor="start">15x</text>
<text x="24.0" y="156.0" font-family="-apple-system,BlinkMacSystemFont,'Segoe UI',Helvetica,Arial,sans-serif" font-size="13" font-weight="400" fill="#52514e" text-anchor="start">Heart failure</text>
<text x="24.0" y="171.0" font-family="-apple-system,BlinkMacSystemFont,'Segoe UI',Helvetica,Arial,sans-serif" font-size="10.5" font-weight="400" fill="#84837d" text-anchor="start">2.9% of patients</text>
<rect x="400" y="144" width="300" height="18" fill="#eceae5" rx="4"/>
<path d="M400.0,144.0 H499.3 a4,4 0 0 1 4,4 V158.0 a4,4 0 0 1 -4,4 H400.0 Z" fill="#2a78d6"/>
<text x="712.0" y="158.0" font-family="-apple-system,BlinkMacSystemFont,'Segoe UI',Helvetica,Arial,sans-serif" font-size="14" font-weight="600" fill="#0b0b0b" text-anchor="start">6x</text>
<text x="24.0" y="196.0" font-family="-apple-system,BlinkMacSystemFont,'Segoe UI',Helvetica,Arial,sans-serif" font-size="13" font-weight="400" fill="#52514e" text-anchor="start">Sleep apnoea</text>
<text x="24.0" y="211.0" font-family="-apple-system,BlinkMacSystemFont,'Segoe UI',Helvetica,Arial,sans-serif" font-size="10.5" font-weight="400" fill="#84837d" text-anchor="start">6.7% of patients</text>
<rect x="400" y="184" width="300" height="18" fill="#eceae5" rx="4"/>
<path d="M400.0,184.0 H493.4 a4,4 0 0 1 4,4 V198.0 a4,4 0 0 1 -4,4 H400.0 Z" fill="#2a78d6"/>
<text x="712.0" y="198.0" font-family="-apple-system,BlinkMacSystemFont,'Segoe UI',Helvetica,Arial,sans-serif" font-size="14" font-weight="600" fill="#0b0b0b" text-anchor="start">5x</text>
<text x="24.0" y="236.0" font-family="-apple-system,BlinkMacSystemFont,'Segoe UI',Helvetica,Arial,sans-serif" font-size="13" font-weight="400" fill="#52514e" text-anchor="start">Type 2 diabetes</text>
<text x="24.0" y="251.0" font-family="-apple-system,BlinkMacSystemFont,'Segoe UI',Helvetica,Arial,sans-serif" font-size="10.5" font-weight="400" fill="#84837d" text-anchor="start">8.1% of patients</text>
<rect x="400" y="224" width="300" height="18" fill="#eceae5" rx="4"/>
<path d="M400.0,224.0 H489.8 a4,4 0 0 1 4,4 V238.0 a4,4 0 0 1 -4,4 H400.0 Z" fill="#2a78d6"/>
<text x="712.0" y="238.0" font-family="-apple-system,BlinkMacSystemFont,'Segoe UI',Helvetica,Arial,sans-serif" font-size="14" font-weight="600" fill="#0b0b0b" text-anchor="start">5x</text>
<text x="24.0" y="276.0" font-family="-apple-system,BlinkMacSystemFont,'Segoe UI',Helvetica,Arial,sans-serif" font-size="13" font-weight="400" fill="#52514e" text-anchor="start">Anaemia</text>
<text x="24.0" y="291.0" font-family="-apple-system,BlinkMacSystemFont,'Segoe UI',Helvetica,Arial,sans-serif" font-size="10.5" font-weight="400" fill="#84837d" text-anchor="start">7.6% of patients</text>
<rect x="400" y="264" width="300" height="18" fill="#eceae5" rx="4"/>
<path d="M400.0,264.0 H432.5 a4,4 0 0 1 4,4 V278.0 a4,4 0 0 1 -4,4 H400.0 Z" fill="#2a78d6"/>
<text x="712.0" y="278.0" font-family="-apple-system,BlinkMacSystemFont,'Segoe UI',Helvetica,Arial,sans-serif" font-size="14" font-weight="600" fill="#0b0b0b" text-anchor="start">2x</text>
<text x="24.0" y="326.0" font-family="-apple-system,BlinkMacSystemFont,'Segoe UI',Helvetica,Arial,sans-serif" font-size="11.5" font-weight="400" fill="#84837d" text-anchor="start">Kidney disease had every kidney code removed first; the other four use the same automatic clue filter.</text>
<text x="24.0" y="360.0" font-family="-apple-system,BlinkMacSystemFont,'Segoe UI',Helvetica,Arial,sans-serif" font-size="11" font-weight="400" fill="#84837d" text-anchor="start">Source: results/target_comparison.csv · average precision against each condition's own chance floor</text>
</svg>
